<?xml version="1.0" encoding="UTF-8"?>
<svg id="Layer_1" xmlns="http://www.w3.org/2000/svg" xmlns:xlink="http://www.w3.org/1999/xlink" version="1.1" viewBox="0 0 112 39">
  <!-- Generator: Adobe Illustrator 30.4.0, SVG Export Plug-In . SVG Version: 2.1.4 Build 226)  -->
  <defs>
    <style>
      .st0 {
        fill: none;
      }

      .st1 {
        fill-rule: evenodd;
      }

      .st1, .st2 {
        fill: #fff;
      }

      .st3 {
        fill: #ef0000;
      }

      .st4 {
        clip-path: url(#clippath);
      }
    </style>
    <clipPath id="clippath">
      <rect class="st0" width="38.6" height="39"/>
    </clipPath>
  </defs>
  <path d="M41.7,26.5h3v-5.8h0l3.3,5.8h3.2v-10.3h-3v5.8h0l-3.4-5.8h-3.1v10.3Z"/>
  <path d="M52.3,26.5h8.3v-2.6h-5.2v-1.6h4.3v-2.3h-4.3v-1.4h5.1v-2.5h-8.2v10.3Z"/>
  <path d="M66.1,26.6c3.1,0,4.7-1.6,4.7-4.1v-6.4h-3.1v6.5c0,.9-.5,1.6-1.6,1.6s-1.7-.6-1.7-1.5v-6.5h-3.1v6.4c0,2.6,1.5,4.1,4.7,4.1Z"/>
  <path d="M71.8,26.5h3.1v-3.6h1.4c.9,0,1.2.4,1.4,1.2.2.9.1,2.2.4,2.4h3v-.2c-.4-.1-.1-1.6-.4-2.8-.2-.8-.6-1.4-1.5-1.7h0c1.1-.5,1.7-1.4,1.7-2.6,0-2.1-1.8-3.1-4-3.1h-5.2v10.3ZM74.9,18.5h1.7c.9,0,1.3.4,1.3,1.1s-.5,1.1-1.4,1.1h-1.6v-2.2Z"/>
  <path d="M81.5,26.5h3l.5-1.5h3.5l.5,1.5h3.2l-3.9-10.3h-3.1l-3.9,10.3ZM86.4,20.8c.2-.5.4-1.3.4-1.3h0s.2.8.4,1.3l.7,2h-2.2l.7-2Z"/>
  <path d="M93,26.5h7.5v-2.6h-4.5v-7.7h-3.1v10.3Z"/>
  <path d="M46.6,39c1.5,0,2.6-.4,3.5-1.2.7-.7,1.3-1.7,1.4-2.9h-3.1c-.1.9-.7,1.6-1.8,1.6s-2.2-1.2-2.2-2.9.7-2.9,2.2-2.9,1.7.7,1.8,1.5h3.1c-.1-1.3-.8-2.5-1.8-3.2-.8-.5-1.8-.8-2.9-.8-3.1,0-5.3,2.3-5.3,5.4s2.1,5.4,5.3,5.4Z"/>
  <path d="M57.2,39c3.2,0,5.3-2.3,5.3-5.4s-2.1-5.4-5.3-5.4-5.3,2.3-5.3,5.4,2,5.4,5.3,5.4ZM57.2,36.6c-1.5,0-2.2-1.3-2.2-3s.7-3,2.2-3,2.2,1.3,2.2,3-.7,3-2.2,3Z"/>
  <path d="M63.2,38.8h3v-5.8h0l3.3,5.8h3.2v-10.3h-3v5.8h0l-3.4-5.8h-3.1v10.3Z"/>
  <path d="M78.6,39c1.5,0,2.6-.4,3.5-1.2.7-.7,1.3-1.7,1.4-2.9h-3.1c-.1.9-.7,1.6-1.8,1.6s-2.2-1.2-2.2-2.9.7-2.9,2.2-2.9,1.7.7,1.8,1.5h3.1c-.1-1.3-.8-2.5-1.8-3.2-.8-.5-1.8-.8-2.9-.8-3.1,0-5.3,2.3-5.3,5.4s2.1,5.4,5.3,5.4Z"/>
  <path d="M84.3,38.8h8.3v-2.6h-5.2v-1.6h4.3v-2.3h-4.3v-1.4h5.1v-2.5h-8.2v10.3Z"/>
  <path d="M93.5,38.8h3.1v-3.1h2.3c2.1,0,3.6-1.5,3.6-3.5s-.4-2.1-1.2-2.7c-.7-.6-1.7-1-3-1h-4.8v10.3ZM96.6,30.9h1.6c.8,0,1.2.4,1.2,1.1s-.5,1.2-1.2,1.2h-1.7v-2.3Z"/>
  <path d="M102.9,31h3v7.7h3.1v-7.7h3v-2.6h-9v2.6Z"/>
  <g class="st4">
    <g>
      <path class="st2" d="M.3,0h37.5v37.5H.2V0Z"/>
      <path class="st3" d="M0,0h38.6v39H0V0Z"/>
      <path class="st2" d="M25.7,12.6c0-.2.4-.2.4,0l.2,11.3c0,.1.2.2.3.1l7.8-3.8c.2-.1.4.1.2.3l-7.5,4.2c-.1.1,0,.3,0,.3l8.1,3.6c.2,0,.2.4,0,.4l-8.2-3.2c-.1,0-.3.1-.2.3l3.3,7.2c0,.2-.2.4-.3.2l-3.8-7c0-.1-.3-.1-.3,0l-2.5,4.1c-.1.2-.4,0-.3-.2l2-4.3c0-.1,0-.3-.2-.3l-9.1,2c-.2,0-.3-.3,0-.4l9-2.5c.1,0,.2-.2,0-.3l-4.5-4.1c-.2-.2,0-.4.2-.3l4.8,3.8c.1,0,.3,0,.3-.1l.3-11.3Z"/>
      <path class="st1" d="M20.3,20.4l4.8,3.8c.1,0,.3,0,.3-.1l.3-11.3c0-.2.4-.2.4,0l.2,11.3c0,.1.2.2.3.1l7.8-3.8c.2-.1.4.1.2.3l-7.5,4.2c-.1.1,0,.3,0,.3l8.1,3.6c.2,0,.2.4,0,.4l-8.2-3.2c-.1,0-.3.1-.2.3l3.3,7.2c0,.2-.2.4-.3.2l-3.8-7c0-.1-.3-.1-.3,0l-2.5,4.1c-.1.2-.4,0-.3-.2l2-4.3c0-.1,0-.3-.2-.3l-9.1,2c-.2,0-.3-.3,0-.4l9-2.5c.1,0,.2-.2,0-.3l-4.5-4.1c-.2-.2,0-.4.2-.3ZM24.4,24.9l-4.5-4.1c-.2-.2-.2-.4,0-.5.1-.1.3-.2.5,0h0s4.8,3.8,4.8,3.8l.3-11.3h0c0-.5.8-.5.8,0h0s.2,11.3.2,11.3h0s7.8-3.8,7.8-3.8c.2-.1.4,0,.5,0,.1.1.1.4,0,.5h0s-7.4,4.2-7.4,4.2l8,3.6c.5.2.3.8-.2.8h0s-8.1-3.2-8.1-3.2l3.3,7.2h0c0,.2,0,.4-.2.5-.2,0-.4,0-.5-.2h0s-3.8-7-3.8-7l-2.5,4.1c-.1.2-.4.2-.5.2-.2,0-.3-.3-.2-.5h0s2-4.3,2-4.3l-9.1,2h0c-.5,0-.6-.6-.2-.8h0s9-2.5,9-2.5Z"/>
    </g>
  </g>
</svg>