<?xml version="1.0" encoding="UTF-8"?>
<svg id="Layer_1" xmlns="http://www.w3.org/2000/svg" version="1.1" viewBox="0 0 389.9 39.8">
  <!-- Generator: Adobe Illustrator 30.4.0, SVG Export Plug-In . SVG Version: 2.1.4 Build 226)  -->
  <path d="M18.5.9l28.9,18.8-.2-9.4V.9c-.1,0,16.2,0,16.2,0v39h-17.5l-14.4-9.4-14.4-9.4.2,18.8H1V.9h17.5Z"/>
  <path d="M67.1.9h57.9v10.7h-39.2l-.2.2v3.1l.2.2h38.7v10.5h-38.7l-.2.2v3.1l.2.2h39.2v10.8h-57.9V.9Z"/>
  <path d="M128.1,32.8V.9h18.5v26.7l.2.2h24.7l.2-.2V.9h18.5v31.9l-7.1,7.1h-48.2l-7-7.1Z"/>
  <path d="M193.9.9h55.4l7,7v12.2l-7.8,7.8h-6.7c0,0,16.4,11.5,16.4,11.5v.3h-22.6l-16.7-11.8h-6.5v11.8h-18.5V.9ZM238.2,18.3l.2-.2v-6l-.2-.2h-25.6l-.2.2v6l.2.2h25.6Z"/>
  <path d="M257.2,39.5L281.9.9h23l24.8,38.6v.3h-20l-3-4.9h-27.5l-2.9,4.9h-19.2v-.3ZM300.5,24.7l-7.6-12.5-7.4,12.5h15Z"/>
  <path d="M331.1.9h18.5v26.7l.2.2h38.1v12.1h-56.9V.9Z"/>
</svg>