<?xml version="1.0" encoding="UTF-8"?>
<svg id="Layer_1" xmlns="http://www.w3.org/2000/svg" version="1.1" viewBox="0 0 1080 108.6">
  <!-- Generator: Adobe Illustrator 30.4.0, SVG Export Plug-In . SVG Version: 2.1.4 Build 226)  -->
  <path d="M49.6.2l80.4,52.2-.5-26.1-.3-26.1h45.2v108.4h-48.6l-40.2-26.1-40-26.1.6,52.2H1V.2h48.6Z"/>
  <path d="M184.8.2h161.2v29.9h-109l-.6.6v8.5l.6.5h107.7v29.1h-107.7l-.6.6v8.5l.6.5h109v30.1h-161.2V.2Z"/>
  <path d="M354.6,89V.2h51.6v74.2l.6.6h68.8l.6-.6V.2h51.4v88.7l-19.6,19.6h-134l-19.5-19.6Z"/>
  <path d="M537.4.2h154.2l19.5,19.5v34l-21.8,21.8-18.5-.2,45.7,32.3v.9h-62.8l-46.5-32.9h-18l-.2.2v32.7h-51.6V.2ZM660.7,48.8l.5-.5v-16.6l-.5-.6h-71.2l-.5.6v16.6l.5.5h71.2Z"/>
  <path d="M713.5,107.6L782.3.2h64.1l69,107.4v.9h-55.7l-8.2-13.6h-76.4l-8.1,13.6h-53.5v-.9ZM834,66.3l-21-34.6-20.7,34.6h41.8Z"/>
  <path d="M919.3.2h51.6v74.2l.6.6h106v33.5h-158.2V.2Z"/>
</svg>