<?xml version="1.0" encoding="UTF-8"?>
<svg id="Layer_1" xmlns="http://www.w3.org/2000/svg" version="1.1" viewBox="0 0 800 194">
  <!-- Generator: Adobe Illustrator 30.4.0, SVG Export Plug-In . SVG Version: 2.1.4 Build 226)  -->
  <defs>
    <style>
      .st0 {
        fill: #0a0a0a;
      }
    </style>
  </defs>
  <path class="st0" d="M-1,4.2v181.4h36.6V38.8h17.2s26.9-1.2,26.9,23.3-23.9,23.9-23.9,23.9h-8.8v41.7l36.6,57.8h42.9l-51.1-74.2s42-3.6,42-49.3S85.8,4.2,43.5,4.2H-1ZM534,89.1s16-12.5,16-36.1-17.2-44.9-53.7-44.9h-61.2v177.6h75.4s54-.6,54-49.4c0-28.3-11-39.2-30.5-47.1ZM504.6,154.7h-32.8V39h17.5s23.8-1.8,23.8,19-19,19-19,19h-10.9v31.2h21.3c5.6,0,23.4,2.7,23.4,23.2,0,20.5-23.4,23.4-23.4,23.4h0ZM764.8.7h34.2v184.9h-34.2V.7h0ZM706,.7h34.6v184.9h-34.6V.7h0ZM574.9,77.3h35.1v62s1.2,20.9,20.9,20.9,19.4-20.9,19.4-20.9v-61.7h35.4v63.8s4.5,49.9-53.8,49.9-56.9-43.9-56.9-51.7v-62.3h0ZM342.3.7v83.9s-16.9-13-36.3-13-52,13.6-52,56.6,27.8,59.3,51.7,59.3,37.2-15.7,37.2-15.7v14h34.5V.7h-35.1s0,0,0,0ZM315.7,157.1c-1.8,0-24.5.3-24.5-27.5s24.8-28.7,24.8-28.7c0,0,27.8.9,27.8,28.1s-26.3,28.1-28.1,28.1ZM185,71.5c58.7,0,56.3,57.2,56.3,57.2v9.1h-79.5c0,13,10.9,24.2,25.7,24.2s22.4-14.2,22.4-14.2l28.1,13.9c-13,19.7-30.5,27.5-50.2,27.5-61.1,0-62.3-50.8-62.3-57.2s.9-60.5,59.6-60.5h0ZM162.3,116.9h43.6s-1.8-20.6-21.5-20.6c-19.7,0-22.1,20.6-22.1,20.6Z"/>
</svg>